<svg width="397" height="265" viewBox="0 0 397 265" fill="none" xmlns="http://www.w3.org/2000/svg">
<path d="M118.55 176.774C118.466 174.898 118.94 173.04 119.912 171.434C120.884 169.828 122.311 168.547 124.011 167.752C125.712 166.957 127.61 166.684 129.466 166.967C131.321 167.251 133.051 168.079 134.437 169.346" stroke="#515277" stroke-width="3.64443" stroke-linecap="round" stroke-linejoin="round"/>
<path d="M283.85 127.307C282.777 125.767 281.271 124.58 279.523 123.895C277.775 123.211 275.864 123.06 274.03 123.463C272.196 123.865 270.523 124.802 269.222 126.155C267.921 127.508 267.05 129.217 266.72 131.065" stroke="#515277" stroke-width="3.64443" stroke-linecap="round" stroke-linejoin="round"/>
<path d="M238.069 95.3206C237.003 93.7754 235.503 92.581 233.758 91.8885C232.013 91.196 230.102 91.0364 228.267 91.4299C226.431 91.8235 224.754 92.7525 223.446 94.0994C222.139 95.4464 221.26 97.1508 220.921 98.9972" stroke="#515277" stroke-width="3.64443" stroke-linecap="round" stroke-linejoin="round"/>
<rect width="92.0096" height="3.45036" rx="1.72518" transform="matrix(-1 0 0 1 128.445 261.375)" fill="#BC60F9"/>
<path d="M53.2949 166.586L96.3497 171.624L131.157 139.564" stroke="#515277" stroke-width="5.7506" stroke-linecap="round" stroke-linejoin="round"/>
<path d="M69.8919 135.503L46.8833 103.859L67.7452 135.559" stroke="#515277" stroke-width="2.58777" stroke-linecap="round" stroke-linejoin="round"/>
<rect width="37.6664" height="29.9031" rx="14.9516" transform="matrix(-1 0 0 1 87.6143 233.485)" fill="#727494"/>
<rect width="32.7784" height="29.9031" rx="14.9516" transform="matrix(-1 0 0 1 84.4512 233.485)" fill="#515277"/>
<rect width="32.7784" height="29.9031" rx="14.9516" transform="matrix(-1 0 0 1 82.728 233.485)" fill="#727494"/>
<path d="M55.9678 213.689L47.0265 227.65L64.7522 248.356" stroke="#515277" stroke-width="5.7506" stroke-linecap="round" stroke-linejoin="round"/>
<ellipse rx="14.8078" ry="14.9516" transform="matrix(-1 0 0 1 64.7557 248.436)" fill="#515277"/>
<ellipse rx="8.19461" ry="8.33837" transform="matrix(-1 0 0 1 64.7566 248.436)" fill="#EAF6FF"/>
<ellipse rx="7.76331" ry="7.90708" transform="matrix(-1 0 0 1 65.1879 248.005)" fill="#D6DCFE"/>
<circle r="3.01907" transform="matrix(-1 0 0 1 65.0444 248.58)" fill="#515277"/>
<path d="M102.513 162.732C103.038 147.451 103.3 139.811 99.2267 134.614C98.4554 133.63 97.5843 132.728 96.6273 131.923C91.5731 127.674 83.9282 127.674 68.6386 127.674C53.349 127.674 45.7042 127.674 40.65 131.923C39.6929 132.728 38.8218 133.63 38.0505 134.614C33.977 139.811 34.2395 147.451 34.7646 162.732L35.5949 186.893C36.0616 200.476 36.295 207.267 39.9773 211.931C40.9835 213.206 42.1564 214.339 43.4645 215.301C48.2522 218.821 55.0477 218.821 68.6386 218.821C82.2296 218.821 89.025 218.821 93.8127 215.301C95.1209 214.339 96.2938 213.206 97.2999 211.931C100.982 207.267 101.216 200.476 101.682 186.893L102.513 162.732Z" fill="#EAF6FF"/>
<path fill-rule="evenodd" clip-rule="evenodd" d="M97.0098 212.398C96.6477 212.857 96.2556 213.294 95.8307 213.709C95.7833 213.755 95.7357 213.801 95.6879 213.847C90.4365 218.865 82.1628 218.865 65.6156 218.865C51.935 218.865 45.0946 218.865 40.1982 215.075C40.0069 214.927 39.8185 214.775 39.6332 214.619C34.8927 210.636 33.4557 203.998 30.5818 190.724L30.5818 190.724L28.6088 181.611C24.256 161.505 22.0796 151.452 25.325 143.75C27.255 139.171 30.4361 135.227 34.5039 132.372C41.3443 127.57 51.6301 127.57 72.2016 127.57C73.4481 127.57 74.6298 127.57 75.7516 127.573C68.1071 127.595 63.9175 127.785 60.6217 129.38C56.7836 131.238 53.724 134.39 51.9815 138.282C50.284 142.073 50.43 146.96 50.7219 156.734L51.6626 188.227C51.9135 196.627 52.0389 200.827 53.5258 204.122C55.418 208.316 58.8353 211.633 63.0838 213.399C66.4221 214.787 70.6239 214.787 79.0277 214.787C87.4314 214.787 91.6333 214.787 94.9716 213.399C95.6748 213.107 96.3552 212.772 97.0098 212.398Z" fill="#D6DCFE"/>
<path d="M99.5181 147.898C99.75 144.227 99.866 142.392 99.5572 140.888C98.685 136.637 95.4953 133.24 91.3087 132.101C89.8267 131.698 87.9875 131.698 84.3093 131.698H73.6442C69.966 131.698 68.1268 131.698 66.6448 132.101C62.4582 133.24 59.2685 136.637 58.3963 140.888C58.0875 142.392 58.2035 144.227 58.4354 147.898C58.6424 151.175 58.7459 152.814 59.1753 154.163C60.3846 157.963 63.4763 160.866 67.3453 161.833C68.719 162.177 70.3607 162.177 73.6442 162.177H84.3093C87.5928 162.177 89.2345 162.177 90.6082 161.833C94.4772 160.866 97.5688 157.963 98.7782 154.163C99.2076 152.814 99.3111 151.175 99.5181 147.898Z" fill="#D6DCFE"/>
<path d="M98.1267 148.586C98.3307 145.341 98.4327 143.718 98.2004 142.382C97.4141 137.857 94.0115 134.234 89.545 133.165C88.2256 132.85 86.5998 132.85 83.3481 132.85H73.1915C69.9398 132.85 68.3139 132.85 66.9946 133.165C62.5281 134.234 59.1255 137.857 58.3392 142.382C58.1069 143.718 58.2089 145.341 58.4128 148.586C58.595 151.485 58.6861 152.935 59.0314 154.138C60.1962 158.195 63.49 161.288 67.6124 162.196C68.8347 162.465 70.2869 162.465 73.1915 162.465H83.3481C86.2526 162.465 87.7049 162.465 88.9271 162.196C93.0496 161.288 96.3434 158.195 97.5081 154.138C97.8535 152.935 97.9445 151.485 98.1267 148.586Z" fill="#515277"/>
<path fill-rule="evenodd" clip-rule="evenodd" d="M75.8487 180.519H72.6602V178.156H81.8878V180.519H78.7692V185.564C78.7692 186.22 78.8807 186.725 79.1035 187.078C79.326 187.431 79.685 187.607 80.1801 187.607C80.6422 187.607 81.0093 187.541 81.2814 187.41C81.5537 187.279 81.8136 187.123 82.061 186.943L83.2988 188.739C82.7212 189.215 82.1519 189.556 81.5908 189.761C81.0297 189.966 80.4029 190.068 79.7096 190.068C79.0002 190.068 78.398 189.966 77.9029 189.761C77.4077 189.556 77.0077 189.264 76.7022 188.887C76.397 188.51 76.1785 188.054 76.0466 187.521C75.9144 186.988 75.8484 186.401 75.8484 185.761V180.519L75.8487 180.519Z" fill="#8397FF"/>
<path d="M77.3906 176.727C78.3045 176.727 79.0454 175.98 79.0454 175.059C79.0454 174.138 78.3045 173.391 77.3906 173.391C76.4767 173.391 75.7358 174.138 75.7358 175.059C75.7358 175.98 76.4767 176.727 77.3906 176.727Z" fill="#8397FF"/>
<path fill-rule="evenodd" clip-rule="evenodd" d="M93.7997 142.854H85.7661C85.801 142.491 85.884 142.141 86.0088 141.813H93.557C93.6818 142.141 93.7649 142.491 93.7997 142.854ZM92.9719 140.771H86.5939C87.3322 139.821 88.4861 139.209 89.7829 139.209C91.0797 139.209 92.2336 139.821 92.9719 140.771ZM85.7475 143.895L93.8184 143.895V144.937H85.7475V143.895ZM85.7475 145.978L93.8184 145.978V147.019H85.7475V145.978ZM85.7997 148.061L93.7662 148.061C93.7068 148.427 93.5981 148.777 93.4472 149.103H86.1186C85.9677 148.777 85.859 148.427 85.7997 148.061ZM86.8149 150.144H92.7509C92.0135 150.944 90.9567 151.445 89.7829 151.445C88.6091 151.445 87.5523 150.944 86.8149 150.144Z" fill="#FFB966"/>
<path fill-rule="evenodd" clip-rule="evenodd" d="M75.9188 142.854H67.8853C67.9202 142.49 68.0033 142.141 68.1282 141.812H75.676C75.8008 142.141 75.8839 142.49 75.9188 142.854ZM75.0907 140.771H68.7134C69.4517 139.82 70.6055 139.209 71.9021 139.209C73.1986 139.209 74.3524 139.82 75.0907 140.771ZM67.8666 143.895L75.9375 143.895V144.936H67.8666V143.895ZM67.8666 145.978L75.9375 145.978V147.019H67.8666V145.978ZM67.9187 148.06L75.8854 148.06C75.8261 148.426 75.7174 148.776 75.5666 149.102H68.2375C68.0867 148.776 67.9781 148.426 67.9187 148.06ZM68.9336 150.144H74.8705C74.1331 150.944 73.0761 151.445 71.9021 151.445C70.728 151.445 69.671 150.944 68.9336 150.144Z" fill="#FFB966"/>
<path d="M42.5062 139.352L2.00023 114.851L39.8075 140.166" stroke="#515277" stroke-width="2.58777" stroke-linecap="round" stroke-linejoin="round"/>
<circle r="5.12562" transform="matrix(-0.998744 0.0501107 0.0501107 0.998744 42.23 140.045)" fill="#EAF6FF"/>
<circle r="4.6209" transform="matrix(-0.998744 0.0501107 0.0501107 0.998744 41.1917 139.6)" fill="#B6C1FF"/>
<circle r="6.57155" transform="matrix(-0.998744 0.0501107 0.0501107 0.998744 60.9066 198.387)" fill="#EAF6FF"/>
<path d="M47.534 190.835C47.3449 189.568 46.2563 188.629 44.9745 188.629L35.4915 188.629C33.8321 188.629 32.6015 190.169 32.9674 191.788L35.6657 203.726C36.5097 207.46 38.9687 210.626 42.3777 212.369C43.0937 212.735 43.8864 212.926 44.6906 212.926L52.2923 212.926C53.7299 212.926 54.5369 211.27 53.6514 210.138L52.7304 208.96C50.7106 206.376 49.3948 203.314 48.9111 200.07L47.534 190.835Z" fill="#8397FF"/>
<rect width="1.72518" height="9.48849" rx="0.862591" transform="matrix(4.37114e-08 1 1 -4.37114e-08 36.4229 195.242)" fill="#515277"/>
<rect width="1.72518" height="9.48849" rx="0.86259" transform="matrix(4.37114e-08 1 1 -4.37114e-08 36.999 198.693)" fill="#515277"/>
<rect width="1.72518" height="9.48849" rx="0.86259" transform="matrix(4.37114e-08 1 1 -4.37114e-08 37.8594 202.143)" fill="#515277"/>
<rect width="154.936" height="101.624" rx="9.48849" transform="matrix(-0.994091 0.108553 0.108553 0.994091 270.958 90.0193)" fill="#EAF6FF"/>
<path fill-rule="evenodd" clip-rule="evenodd" d="M120.765 108.458C119.33 110.328 118.586 112.732 118.862 115.26L127.709 196.278C128.278 201.487 132.962 205.249 138.172 204.68L274.955 189.744C276.542 189.57 277.994 189.015 279.231 188.18C277.714 190.288 275.343 191.769 272.557 192.073L137.402 206.832C132.193 207.4 127.508 203.639 126.94 198.429L117.968 116.27C117.639 113.26 118.757 110.424 120.765 108.458Z" fill="#D6DCFE"/>
<path d="M119.099 111.079L198.323 153.86C200.359 154.959 202.866 154.666 204.593 153.125L270.05 94.7304" stroke="#D6DCFE" stroke-width="1.83197"/>
<path d="M297.577 50.0583L297.577 12.7191L299.337 50.7908" stroke="#515277" stroke-width="2.52307" stroke-linecap="round" stroke-linejoin="round"/>
<path d="M306.739 62.2476L287.787 90.1197L239.698 98.3635" stroke="#515277" stroke-width="5.60682" stroke-linecap="round" stroke-linejoin="round"/>
<path d="M280.307 59.179C281.082 53.1048 284.925 47.8552 290.481 45.28L297.374 42.0848C313.546 34.5888 331.215 30.8796 349.036 31.2394L356.511 31.3903C366.621 31.5944 375.585 37.9416 379.135 47.41C386.12 66.0401 378.439 86.978 361.063 96.6714L326.366 116.028C325.671 116.416 325.324 116.609 325.057 116.751C307.684 125.98 286.321 115.899 282.402 96.621C282.341 96.3246 282.27 95.9335 282.128 95.1512L281.115 89.5878C279.289 79.5529 279.016 69.2968 280.307 59.179Z" fill="#EAF6FF"/>
<path d="M282.995 64.8306C283.041 61.6825 283.064 60.1085 283.386 58.6983C284.177 55.2311 286.282 52.2058 289.258 50.259C290.469 49.4671 291.937 48.8986 294.873 47.7617L303.434 44.4461C306.75 43.1621 308.408 42.52 309.787 42.3968C314.143 42.0077 318.231 44.5485 319.81 48.6269C320.31 49.9181 320.47 51.7117 320.79 55.2991C321.166 59.5082 321.354 61.6127 321.16 63.4753C320.525 69.5577 317.052 74.9817 311.793 78.1026C310.182 79.0584 308.217 79.7593 304.286 81.1612C299.915 82.72 297.729 83.4994 295.978 83.6047C290.157 83.9547 284.887 80.1809 283.343 74.5578C282.879 72.8664 282.912 70.5463 282.98 65.906L282.995 64.8306Z" fill="#D6DCFE"/>
<path d="M284.014 65.2499C284.054 62.301 284.074 60.8266 284.357 59.502C285.126 55.8979 287.311 52.7539 290.421 50.7766C291.564 50.0499 292.939 49.517 295.689 48.4512L303.997 45.231C307.071 44.0394 308.608 43.4436 309.884 43.3031C314.377 42.8083 318.627 45.4474 320.176 49.6943C320.616 50.8998 320.766 52.5724 321.067 55.9177C321.414 59.7872 321.588 61.7219 321.44 63.4267C320.89 69.7466 317.275 75.3951 311.768 78.543C310.282 79.3921 308.486 80.0333 304.892 81.3155C300.901 82.7398 298.905 83.452 297.31 83.5873C291.277 84.0994 285.764 80.1566 284.299 74.2816C283.912 72.7284 283.941 70.6097 283.999 66.3724L284.014 65.2499Z" fill="#515277"/>
<path fill-rule="evenodd" clip-rule="evenodd" d="M304.016 39.2509L306.316 38.5351C315.89 35.5558 325.81 42.0267 326.942 51.9891L329.42 73.8032L330.734 86.4024C331.715 95.8122 326.118 104.668 317.198 107.82L303.292 112.734C299.1 114.216 294.599 113.855 290.798 111.949C299.561 120.369 313.233 123.032 325.057 116.751C325.324 116.609 325.672 116.415 326.366 116.028L361.063 96.671C378.439 86.9776 386.12 66.0397 379.135 47.4096C375.585 37.9413 366.622 31.594 356.512 31.3899L349.036 31.239C333.626 30.9279 318.33 33.6593 304.016 39.2509Z" fill="#D6DCFE"/>
<path fill-rule="evenodd" clip-rule="evenodd" d="M355.999 31.3797L349.037 31.2392C345.151 31.1607 341.271 31.2758 337.413 31.5815L340.847 31.5871C342.902 31.5905 344.822 32.6135 345.971 34.3177L346.437 35.0088C358.52 52.9273 362.516 75.0995 357.447 96.1087C357.092 97.5788 356.318 98.9013 355.234 99.9241L361.065 96.6712C364.815 94.5787 368.114 91.9623 370.912 88.9582C373.301 85.0945 374.467 80.5721 374.215 75.9927L373.766 67.8132C373.223 57.9327 370.396 48.3127 365.509 39.7085L363.876 36.834C362.205 33.8919 359.293 31.9006 355.999 31.3797Z" fill="#8397FF"/>
<path fill-rule="evenodd" clip-rule="evenodd" d="M288.614 68.3869L295.566 66.5988C295.455 66.2925 295.306 66.009 295.125 65.7525L288.593 67.4325C288.558 67.7445 288.564 68.065 288.614 68.3869ZM288.868 66.401L294.386 64.9816C293.536 64.3236 292.401 64.0512 291.279 64.3398C290.157 64.6284 289.295 65.4143 288.868 66.401ZM295.815 67.4959L288.83 69.2923L289.062 70.1937L296.046 68.3972L295.815 67.4959ZM296.278 69.2984L289.293 71.0949L289.525 71.9964L296.51 70.2L296.278 69.2984ZM296.697 71.1128L289.802 72.8861C289.935 73.1896 290.107 73.468 290.31 73.7165L296.653 72.085C296.711 71.7693 296.727 71.4427 296.697 71.1128ZM296.283 73.1411L291.143 74.463C291.96 74.9919 292.987 75.1908 294.003 74.9294C295.02 74.668 295.823 73.9983 296.283 73.1411Z" fill="#00D4FF"/>
<path fill-rule="evenodd" clip-rule="evenodd" d="M301.365 63.464L308.317 61.6759C308.206 61.3692 308.056 61.0854 307.875 60.8287L301.343 62.5086C301.309 62.8209 301.314 63.1417 301.365 63.464ZM301.618 61.477L307.136 60.0578C306.286 59.4001 305.152 59.1279 304.03 59.4165C302.908 59.705 302.046 60.4906 301.618 61.477ZM308.565 62.573L301.58 64.3694L301.812 65.2707L308.797 63.4743L308.565 62.573ZM309.029 64.3755L302.044 66.172L302.276 67.0739L309.261 65.2775L309.029 64.3755ZM309.447 66.1903L302.553 67.9635C302.686 68.2669 302.857 68.5451 303.06 68.7936L309.403 67.1621C309.461 66.8466 309.477 66.5201 309.447 66.1903ZM309.033 68.2182L303.894 69.5399C304.711 70.0687 305.737 70.2675 306.754 70.0061C307.77 69.7447 308.573 69.0753 309.033 68.2182Z" fill="#00D4FF"/>
<path d="M340.321 135.546L339.773 106.121L348.632 100.617L374.562 114.422L340.321 135.546Z" fill="url(#paint0_radial)"/>
<ellipse cx="343.992" cy="103.282" rx="9.34522" ry="4.41276" transform="rotate(-29.4144 343.992 103.282)" fill="#515277"/>
<ellipse cx="344.893" cy="104.63" rx="7.94252" ry="2.86646" transform="rotate(-29.4144 344.893 104.63)" fill="#FFA858"/>
<ellipse cx="344.301" cy="103.575" rx="5.42323" ry="1.68541" transform="rotate(-29.4144 344.301 103.575)" fill="#FFDA58"/>
<path d="M331.98 44.8795L346.868 2.18529L333.367 46.187" stroke="#515277" stroke-width="2.52307" stroke-linecap="round" stroke-linejoin="round"/>
<path fill-rule="evenodd" clip-rule="evenodd" d="M303.518 94.591L300.746 95.2832L300.236 93.2407L308.257 91.2376L308.767 93.2798L306.057 93.9568L307.146 98.3179C307.287 98.8852 307.493 99.2972 307.763 99.5537C308.033 99.8105 308.383 99.885 308.813 99.7775C309.215 99.6772 309.52 99.5407 309.728 99.3682C309.936 99.1956 310.129 99.0044 310.305 98.7947L311.768 100.079C311.369 100.616 310.948 101.034 310.504 101.333C310.061 101.632 309.538 101.856 308.935 102.007C308.319 102.161 307.773 102.203 307.299 102.133C306.824 102.064 306.413 101.899 306.066 101.638C305.72 101.379 305.431 101.032 305.201 100.6C304.971 100.168 304.787 99.6754 304.649 99.1223L303.518 94.5908L303.518 94.591Z" fill="#8397FF"/>
<path d="M304.041 90.9787C304.835 90.7803 305.318 89.9741 305.119 89.1779C304.92 88.3818 304.115 87.8972 303.321 88.0956C302.526 88.294 302.043 89.1002 302.242 89.8964C302.441 90.6925 303.246 91.1771 304.041 90.9787Z" fill="#8397FF"/>
<circle cx="332.118" cy="46.0273" r="4.58013" transform="rotate(7.27199 332.118 46.0273)" fill="#EAF6FF"/>
<circle cx="332.877" cy="44.8929" r="3.64758" transform="rotate(7.27199 332.877 44.8929)" fill="#B6C1FF"/>
<rect x="355.484" y="46.1846" width="10.9333" height="1.96239" rx="0.981194" transform="rotate(-7.26353 355.484 46.1846)" fill="#515277"/>
<rect x="357.012" y="50.2744" width="10.9333" height="1.96239" rx="0.981194" transform="rotate(-7.26353 357.012 50.2744)" fill="#515277"/>
<rect x="358.425" y="54.6943" width="10.9333" height="1.96239" rx="0.981194" transform="rotate(-7.26353 358.425 54.6943)" fill="#515277"/>
<path d="M273.132 140.278C274.857 141.018 276.763 141.229 278.609 140.885C280.454 140.541 282.156 139.658 283.5 138.346C284.843 137.035 285.768 135.355 286.156 133.518C286.545 131.682 286.38 129.771 285.683 128.029" stroke="#515277" stroke-width="3.64443" stroke-linecap="round" stroke-linejoin="round"/>
<path d="M225.983 109.118C227.66 109.96 229.55 110.286 231.413 110.055C233.276 109.823 235.028 109.044 236.448 107.817C237.869 106.589 238.893 104.968 239.392 103.158C239.891 101.348 239.842 99.4314 239.251 97.6496" stroke="#515277" stroke-width="3.64443" stroke-linecap="round" stroke-linejoin="round"/>
<path d="M346.151 64.4926L326.64 110.271L285.497 128.591" stroke="#515277" stroke-width="5.60682" stroke-linecap="round" stroke-linejoin="round"/>
<circle cx="345.2" cy="64.2295" r="7.98972" transform="rotate(7.27199 345.2 64.2295)" fill="#EAF6FF"/>
<circle cx="346.5" cy="63.972" r="7.28887" transform="rotate(7.27199 346.5 63.972)" fill="#B6C1FF"/>
<circle cx="346.5" cy="63.972" r="2.52307" transform="rotate(7.27199 346.5 63.972)" fill="#8397FF"/>
<circle cx="286.111" cy="128.289" r="4.20512" transform="rotate(7.27199 286.111 128.289)" fill="#EAF6FF"/>
<circle cx="286.581" cy="127.925" r="3.7846" transform="rotate(7.27199 286.581 127.925)" fill="#B6C1FF"/>
<circle cx="286.583" cy="127.925" r="1.54188" transform="rotate(7.27199 286.583 127.925)" fill="#515277"/>
<circle cx="325.088" cy="110.474" r="5.46665" transform="rotate(7.27199 325.088 110.474)" fill="#EAF6FF"/>
<circle cx="325.837" cy="110.145" r="5.04614" transform="rotate(7.27199 325.837 110.145)" fill="#B6C1FF"/>
<circle cx="325.836" cy="110.145" r="2.52307" transform="rotate(7.27199 325.836 110.145)" fill="#515277"/>
<path d="M37.4 166.002L76.1931 192.252L119.703 179.886" stroke="#515277" stroke-width="5.7506" stroke-linecap="round" stroke-linejoin="round"/>
<circle r="8.11108" transform="matrix(-0.998744 0.0501107 0.0501107 0.998744 38.391 165.882)" fill="#EAF6FF"/>
<circle r="7.39959" transform="matrix(-0.998744 0.0501107 0.0501107 0.998744 37.0889 165.52)" fill="#8397FF"/>
<circle r="2.56139" transform="matrix(-0.998744 0.0501107 0.0501107 0.998744 37.0897 165.52)" fill="#515277"/>
<circle cx="77.1242" cy="192.058" r="5.46665" transform="rotate(-155.793 77.1242 192.058)" fill="#EAF6FF"/>
<circle cx="76.3119" cy="192.155" r="5.04614" transform="rotate(-155.793 76.3119 192.155)" fill="#B6C1FF"/>
<circle cx="76.3139" cy="192.155" r="2.52307" transform="rotate(-155.793 76.3139 192.155)" fill="#515277"/>
<path d="M238.069 95.3206C237.003 93.7754 235.503 92.581 233.758 91.8885C232.013 91.196 230.102 91.0364 228.267 91.4299" stroke="#515277" stroke-width="3.64443" stroke-linecap="round" stroke-linejoin="round"/>
<circle cx="238.978" cy="98.5599" r="4.20512" transform="rotate(57.4649 238.978 98.5599)" fill="#EAF6FF"/>
<circle cx="239.561" cy="98.6878" r="3.78461" transform="rotate(57.4649 239.561 98.6878)" fill="#B6C1FF"/>
<circle cx="239.559" cy="98.6881" r="1.54188" transform="rotate(57.4649 239.559 98.6881)" fill="#515277"/>
<path d="M136.518 180.469C135.689 182.154 134.38 183.555 132.756 184.496C131.131 185.436 129.264 185.874 127.391 185.753C125.518 185.633 123.722 184.96 122.231 183.819C120.741 182.678 119.622 181.121 119.016 179.344" stroke="#515277" stroke-width="3.64443" stroke-linecap="round" stroke-linejoin="round"/>
<circle r="4.20512" transform="matrix(0.164907 0.986309 0.986309 -0.164907 119.555 179.577)" fill="#EAF6FF"/>
<circle r="3.7846" transform="matrix(0.164907 0.986309 0.986309 -0.164907 119.209 180.061)" fill="#B6C1FF"/>
<circle r="1.54188" transform="matrix(0.164907 0.986309 0.986309 -0.164907 119.21 180.06)" fill="#515277"/>
<path fill-rule="evenodd" clip-rule="evenodd" d="M185.318 139.849C185.732 141.309 184.885 142.828 183.425 143.243C181.965 143.657 180.445 142.81 180.031 141.35C180.031 141.35 180.031 141.35 180.031 141.35L177.388 142.1C177.389 142.1 177.389 142.1 177.389 142.1C177.803 143.56 176.956 145.08 175.496 145.494C174.036 145.909 172.516 145.061 172.102 143.601C172.102 143.601 172.102 143.601 172.102 143.601L169.458 144.352C169.458 144.352 169.458 144.352 169.458 144.352C169.872 145.812 169.025 147.332 167.565 147.746C166.105 148.161 164.585 147.313 164.171 145.853C164.171 145.853 164.171 145.853 164.171 145.853L161.527 146.603C161.527 146.604 161.527 146.604 161.527 146.604C161.942 148.064 161.094 149.583 159.634 149.998C159.634 149.998 159.634 149.998 159.633 149.998L160.384 152.642C160.384 152.641 160.385 152.641 160.385 152.641C161.845 152.227 163.365 153.074 163.779 154.534C164.194 155.994 163.346 157.514 161.887 157.928C161.886 157.928 161.886 157.928 161.885 157.929L162.636 160.572C162.636 160.572 162.636 160.572 162.636 160.572C164.096 160.157 165.616 161.005 166.03 162.464C166.445 163.924 165.597 165.444 164.137 165.859C164.137 165.859 164.137 165.859 164.137 165.859L164.887 168.502C164.888 168.502 164.888 168.502 164.888 168.502C166.348 168.087 167.868 168.935 168.282 170.395C168.697 171.855 167.849 173.374 166.39 173.789C166.389 173.789 166.389 173.789 166.388 173.789L167.139 176.432C167.139 176.432 167.139 176.432 167.139 176.432C168.599 176.018 170.119 176.865 170.533 178.325L173.177 177.575C172.762 176.115 173.61 174.595 175.07 174.181C176.53 173.766 178.049 174.614 178.464 176.073L181.108 175.323C180.693 173.863 181.541 172.344 183.001 171.929C184.46 171.515 185.98 172.362 186.395 173.822L189.038 173.071C188.624 171.611 189.472 170.092 190.931 169.677C192.391 169.263 193.911 170.11 194.325 171.57L196.969 170.819C196.555 169.36 197.402 167.84 198.862 167.426C200.322 167.011 201.841 167.859 202.256 169.318L204.898 168.568C204.484 167.108 205.331 165.589 206.791 165.174C208.251 164.76 209.771 165.607 210.185 167.067L212.829 166.316C212.415 164.857 213.262 163.337 214.721 162.923L213.971 160.279C213.971 160.279 213.971 160.279 213.971 160.279C212.511 160.694 210.991 159.846 210.577 158.386C210.162 156.926 211.01 155.407 212.469 154.992C212.47 154.992 212.47 154.992 212.47 154.992L211.719 152.349C210.259 152.763 208.74 151.915 208.326 150.456C207.912 148.996 208.759 147.477 210.218 147.062L209.467 144.418C208.008 144.833 206.488 143.985 206.074 142.525C205.659 141.065 206.506 139.546 207.966 139.131L207.216 136.488C205.756 136.902 204.237 136.054 203.823 134.595C203.823 134.595 203.823 134.595 203.823 134.595L201.179 135.345C201.179 135.345 201.179 135.345 201.179 135.345C201.594 136.805 200.746 138.325 199.286 138.739C197.826 139.154 196.307 138.307 195.892 136.847C195.892 136.846 195.892 136.846 195.892 136.846L193.248 137.597C193.248 137.597 193.248 137.597 193.248 137.597C193.663 139.057 192.815 140.577 191.355 140.991C189.896 141.406 188.376 140.558 187.961 139.098C187.961 139.098 187.961 139.098 187.961 139.098L185.318 139.849C185.318 139.849 185.318 139.849 185.318 139.849Z" fill="#C4D1FF"/>
<path fill-rule="evenodd" clip-rule="evenodd" d="M185.951 138.717C186.365 140.177 185.518 141.697 184.058 142.111C182.598 142.526 181.079 141.678 180.664 140.219C180.664 140.218 180.664 140.218 180.664 140.218L178.022 140.969C178.022 140.969 178.022 140.969 178.022 140.969C178.436 142.429 177.589 143.949 176.129 144.363C174.669 144.778 173.15 143.93 172.735 142.47C172.735 142.47 172.735 142.47 172.735 142.47L170.091 143.22C170.091 143.22 170.091 143.221 170.091 143.221C170.506 144.681 169.658 146.2 168.198 146.615C166.738 147.029 165.219 146.182 164.804 144.722C164.804 144.722 164.804 144.722 164.804 144.721L162.16 145.472C162.16 145.472 162.16 145.472 162.16 145.472C162.575 146.932 161.727 148.452 160.268 148.866C160.267 148.866 160.267 148.867 160.267 148.867L161.017 151.51C161.018 151.51 161.018 151.51 161.019 151.51C162.479 151.095 163.998 151.943 164.413 153.403C164.827 154.863 163.98 156.382 162.52 156.797C162.519 156.797 162.519 156.797 162.518 156.797L163.269 159.44C163.269 159.44 163.269 159.44 163.269 159.44C164.729 159.026 166.249 159.873 166.663 161.333C167.078 162.793 166.23 164.313 164.77 164.727C164.77 164.727 164.77 164.727 164.77 164.727L165.521 167.371C165.521 167.371 165.521 167.371 165.522 167.371C166.982 166.956 168.501 167.804 168.916 169.264C169.33 170.724 168.483 172.243 167.023 172.658C167.022 172.658 167.022 172.658 167.022 172.658L167.772 175.301C167.772 175.301 167.772 175.301 167.772 175.301C169.232 174.887 170.752 175.734 171.166 177.194L173.81 176.443C173.396 174.983 174.243 173.464 175.703 173.049C177.163 172.635 178.683 173.482 179.097 174.942L181.741 174.191C181.327 172.732 182.174 171.212 183.634 170.798C185.094 170.383 186.613 171.231 187.028 172.69L189.672 171.94C189.257 170.48 190.105 168.961 191.565 168.546C193.025 168.132 194.544 168.979 194.959 170.439L197.602 169.688C197.188 168.228 198.036 166.709 199.495 166.294C200.955 165.88 202.475 166.727 202.889 168.187L205.532 167.437C205.117 165.977 205.965 164.457 207.424 164.043C208.884 163.628 210.404 164.476 210.818 165.936L213.462 165.185C213.048 163.725 213.895 162.206 215.355 161.791L214.604 159.148C214.604 159.148 214.604 159.148 214.604 159.148C213.144 159.562 211.624 158.715 211.21 157.255C210.795 155.795 211.643 154.275 213.103 153.861C213.103 153.861 213.103 153.861 213.103 153.861L212.352 151.218C210.893 151.631 209.374 150.784 208.959 149.324C208.545 147.865 209.392 146.346 210.851 145.931L210.101 143.287C208.641 143.701 207.121 142.854 206.707 141.394C206.292 139.934 207.14 138.415 208.6 138L207.849 135.357C206.39 135.771 204.871 134.923 204.456 133.464C204.456 133.463 204.456 133.463 204.456 133.463L201.812 134.214C201.812 134.214 201.812 134.214 201.813 134.214C202.227 135.674 201.38 137.194 199.92 137.608C198.46 138.023 196.94 137.175 196.526 135.715C196.526 135.715 196.526 135.715 196.525 135.715L193.882 136.466C193.882 136.466 193.882 136.466 193.882 136.466C194.296 137.926 193.449 139.445 191.989 139.86C190.529 140.274 189.009 139.427 188.595 137.967C188.595 137.967 188.595 137.967 188.595 137.967L185.951 138.717C185.951 138.717 185.951 138.717 185.951 138.717Z" fill="white"/>
<g clip-path="url(#clip0)">
<path fill-rule="evenodd" clip-rule="evenodd" d="M171.965 157.804L169.654 158.46L169.167 156.744L175.854 154.845L176.341 156.561L174.081 157.203L175.121 160.867C175.257 161.343 175.442 161.687 175.676 161.897C175.91 162.108 176.206 162.162 176.565 162.06C176.9 161.965 177.153 161.842 177.323 161.691C177.493 161.539 177.649 161.372 177.791 161.191L179.059 162.241C178.738 162.705 178.396 163.07 178.032 163.334C177.667 163.598 177.234 163.802 176.732 163.944C176.218 164.09 175.76 164.14 175.359 164.093C174.958 164.046 174.608 163.917 174.309 163.705C174.01 163.494 173.757 163.208 173.552 162.848C173.346 162.488 173.177 162.076 173.045 161.611L171.964 157.804L171.965 157.804Z" fill="#6360F1"/>
<path d="M172.299 154.733C172.961 154.545 173.344 153.85 173.154 153.181C172.964 152.512 172.273 152.122 171.611 152.31C170.949 152.498 170.566 153.193 170.756 153.862C170.945 154.531 171.636 154.921 172.299 154.733Z" fill="#6360F1"/>
<path fill-rule="evenodd" clip-rule="evenodd" d="M179.776 154.976L178.085 155.457L177.844 154.606L182.168 153.379L182.41 154.229L180.719 154.709L181.928 158.966L180.985 159.234L179.776 154.976ZM183.116 153.11L186.348 152.192L186.589 153.042L184.299 153.692L184.641 154.894L186.325 154.416L186.568 155.274L184.884 155.752L185.263 157.084L187.724 156.385L187.97 157.251L184.566 158.217L183.116 153.11L183.116 153.11ZM188.905 155.39C188.986 155.445 189.078 155.5 189.183 155.556C189.288 155.611 189.401 155.659 189.523 155.699C189.645 155.739 189.776 155.764 189.916 155.774C190.056 155.783 190.206 155.766 190.366 155.72C190.66 155.637 190.859 155.506 190.962 155.328C191.065 155.15 191.089 154.964 191.034 154.77C191.003 154.662 190.956 154.572 190.892 154.499C190.828 154.426 190.74 154.372 190.627 154.335C190.514 154.298 190.375 154.276 190.208 154.268C190.041 154.26 189.839 154.265 189.602 154.282C189.359 154.302 189.14 154.286 188.946 154.237C188.751 154.188 188.58 154.112 188.433 154.01C188.288 153.911 188.162 153.786 188.061 153.64C187.961 153.497 187.886 153.338 187.838 153.17C187.783 152.976 187.766 152.781 187.786 152.585C187.806 152.386 187.871 152.195 187.974 152.026C188.081 151.85 188.231 151.69 188.425 151.547C188.618 151.404 188.862 151.29 189.157 151.207C189.421 151.132 189.657 151.098 189.864 151.105C190.071 151.113 190.249 151.139 190.4 151.185C190.55 151.23 190.672 151.283 190.764 151.342C190.856 151.401 190.922 151.445 190.962 151.472L190.511 152.245C190.459 152.222 190.409 152.196 190.36 152.168C190.28 152.126 190.196 152.093 190.109 152.07C190 152.04 189.888 152.022 189.775 152.016C189.648 152.008 189.513 152.024 189.368 152.065C189.239 152.102 189.131 152.152 189.047 152.214C188.962 152.277 188.897 152.345 188.85 152.419C188.804 152.493 188.775 152.569 188.765 152.646C188.754 152.715 188.758 152.786 188.775 152.854C188.802 152.946 188.841 153.023 188.894 153.085C188.946 153.147 189.02 153.198 189.115 153.237C189.209 153.277 189.331 153.302 189.48 153.312C189.628 153.322 189.81 153.318 190.026 153.301C190.233 153.287 190.437 153.295 190.64 153.326C190.837 153.355 191.028 153.416 191.205 153.509C191.383 153.603 191.541 153.733 191.669 153.89C191.804 154.053 191.909 154.265 191.983 154.525C192.047 154.75 192.061 154.969 192.024 155.183C191.988 155.399 191.909 155.604 191.792 155.787C191.672 155.976 191.514 156.14 191.317 156.282C191.12 156.423 190.892 156.531 190.633 156.604C190.383 156.675 190.149 156.709 189.93 156.705C189.723 156.703 189.518 156.676 189.317 156.627C189.141 156.583 188.971 156.519 188.81 156.435C188.661 156.356 188.532 156.277 188.423 156.198L188.906 155.39L188.905 155.39ZM193.578 151.058L191.887 151.538L191.645 150.688L195.97 149.46L196.212 150.31L194.52 150.79L195.729 155.048L194.786 155.315L193.578 151.058L193.578 151.058ZM198.473 148.749L199.416 148.481L200.866 153.589L199.924 153.857L198.473 148.749L198.473 148.749ZM202.106 148.636L200.415 149.116L200.174 148.266L204.499 147.038L204.74 147.888L203.049 148.369L204.258 152.626L203.315 152.894L202.106 148.636Z" fill="#6360F1"/>
<path d="M180.645 162.141C180.692 162.167 180.745 162.185 180.806 162.194C180.868 162.202 180.933 162.197 181.003 162.177C181.064 162.16 181.111 162.137 181.144 162.11C181.177 162.083 181.187 162.05 181.177 162.012C181.172 161.996 181.164 161.981 181.154 161.968C181.139 161.953 181.121 161.943 181.101 161.939C181.068 161.93 181.035 161.925 181.002 161.923C180.947 161.921 180.893 161.921 180.839 161.924C180.794 161.925 180.75 161.923 180.706 161.918C180.659 161.913 180.612 161.902 180.568 161.883C180.524 161.864 180.483 161.837 180.449 161.804C180.413 161.769 180.388 161.724 180.372 161.667C180.355 161.609 180.354 161.553 180.369 161.499C180.383 161.445 180.408 161.397 180.444 161.354C180.48 161.31 180.524 161.272 180.575 161.239C180.625 161.207 180.68 161.183 180.737 161.166C180.838 161.138 180.926 161.124 181.003 161.126C181.079 161.128 181.152 161.142 181.221 161.169L181.132 161.419C181.027 161.381 180.913 161.378 180.806 161.411C180.738 161.431 180.694 161.455 180.673 161.483C180.663 161.495 180.656 161.509 180.653 161.525C180.65 161.54 180.65 161.556 180.655 161.571C180.665 161.607 180.695 161.63 180.746 161.638C180.796 161.646 180.872 161.649 180.973 161.645C181.035 161.642 181.092 161.644 181.144 161.651C181.196 161.658 181.242 161.671 181.284 161.692C181.326 161.712 181.362 161.741 181.391 161.776C181.42 161.812 181.443 161.859 181.459 161.915C181.475 161.972 181.477 162.027 181.464 162.08C181.451 162.134 181.426 162.184 181.391 162.226C181.353 162.273 181.308 162.313 181.257 162.344C181.2 162.379 181.139 162.406 181.076 162.424C180.968 162.454 180.868 162.466 180.773 162.46C180.686 162.456 180.601 162.429 180.527 162.382L180.645 162.141L180.645 162.141ZM181.566 161.606C181.542 161.521 181.534 161.437 181.543 161.352C181.551 161.268 181.574 161.19 181.612 161.118C181.649 161.046 181.701 160.983 181.767 160.928C181.833 160.873 181.911 160.833 182.002 160.807C182.093 160.781 182.18 160.775 182.265 160.787C182.35 160.798 182.427 160.825 182.497 160.867C182.567 160.908 182.627 160.962 182.679 161.03C182.73 161.097 182.768 161.173 182.792 161.258C182.84 161.422 182.824 161.597 182.747 161.748C182.709 161.822 182.657 161.887 182.593 161.939C182.527 161.994 182.448 162.034 182.357 162.06C182.267 162.086 182.179 162.093 182.094 162.081C182.012 162.07 181.933 162.042 181.862 161.999C181.718 161.911 181.612 161.77 181.566 161.606L181.566 161.606ZM182.285 161.805C182.34 161.789 182.385 161.764 182.419 161.73C182.453 161.696 182.478 161.657 182.495 161.613C182.511 161.569 182.52 161.523 182.52 161.476C182.521 161.43 182.515 161.384 182.503 161.34C182.49 161.297 182.471 161.255 182.447 161.217C182.422 161.178 182.39 161.142 182.353 161.114C182.314 161.083 182.268 161.063 182.219 161.054C182.171 161.045 182.121 161.048 182.074 161.062C182.026 161.075 181.983 161.098 181.946 161.131C181.909 161.165 181.881 161.206 181.864 161.253C181.848 161.296 181.839 161.342 181.839 161.39C181.838 161.435 181.844 161.481 181.856 161.524C181.868 161.568 181.887 161.609 181.912 161.649C181.937 161.688 181.969 161.723 182.006 161.752C182.043 161.781 182.085 161.801 182.132 161.812C182.179 161.823 182.23 161.82 182.285 161.805ZM183.008 160.824L182.813 160.879L182.745 160.639L182.94 160.584L182.919 160.512C182.895 160.426 182.888 160.351 182.897 160.284C182.906 160.218 182.926 160.16 182.955 160.111C182.984 160.063 183.023 160.022 183.069 159.991C183.114 159.96 183.161 159.938 183.21 159.924C183.262 159.909 183.321 159.9 183.389 159.897C183.456 159.894 183.527 159.91 183.6 159.945L183.521 160.179C183.49 160.168 183.458 160.161 183.425 160.157C183.393 160.154 183.36 160.157 183.329 160.166C183.272 160.182 183.232 160.213 183.209 160.26C183.187 160.307 183.186 160.366 183.205 160.436L183.225 160.503L183.519 160.42L183.587 160.66L183.295 160.743L183.56 161.675L183.273 161.757L183.008 160.824ZM183.847 160.586L183.653 160.641L183.585 160.401L183.779 160.346L183.671 159.966L183.958 159.884L184.066 160.264L184.373 160.177L184.441 160.417L184.135 160.504L184.28 161.017C184.299 161.084 184.325 161.132 184.357 161.161C184.389 161.191 184.429 161.199 184.478 161.185C184.523 161.172 184.557 161.155 184.58 161.134C184.603 161.113 184.624 161.09 184.643 161.065L184.817 161.213C184.774 161.277 184.728 161.328 184.678 161.364C184.629 161.401 184.571 161.429 184.502 161.448C184.433 161.468 184.37 161.474 184.316 161.467C184.262 161.46 184.213 161.442 184.173 161.412C184.13 161.38 184.094 161.339 184.069 161.291C184.039 161.237 184.015 161.179 183.999 161.118L183.847 160.586ZM184.516 160.136L184.833 160.047L185.283 160.8L185.292 159.916L185.533 159.848L186.008 160.594L185.993 159.717L186.295 159.632L186.241 160.914L185.963 160.993L185.529 160.352L185.504 161.124L185.236 161.2L184.516 160.136ZM187.433 160.457C187.413 160.504 187.376 160.551 187.321 160.599C187.225 160.682 187.102 160.725 186.976 160.721C186.926 160.72 186.876 160.709 186.83 160.689C186.782 160.668 186.739 160.636 186.704 160.596C186.664 160.55 186.635 160.495 186.62 160.436C186.601 160.37 186.597 160.306 186.606 160.247C186.615 160.188 186.637 160.134 186.671 160.086C186.704 160.037 186.749 159.995 186.806 159.959C186.867 159.921 186.933 159.893 187.002 159.874C187.054 159.859 187.106 159.846 187.159 159.835L187.251 159.814L187.243 159.787C187.236 159.759 187.223 159.734 187.204 159.714C187.185 159.693 187.162 159.677 187.136 159.668C187.081 159.648 187.017 159.648 186.944 159.669C186.863 159.692 186.801 159.721 186.759 159.757C186.716 159.792 186.68 159.827 186.65 159.863L186.461 159.7C186.479 159.677 186.5 159.653 186.525 159.627C186.549 159.601 186.578 159.576 186.613 159.551C186.648 159.525 186.69 159.501 186.738 159.477C186.787 159.454 186.845 159.432 186.913 159.413C186.986 159.392 187.055 159.384 187.12 159.388C187.186 159.392 187.245 159.406 187.297 159.432C187.35 159.457 187.395 159.493 187.433 159.539C187.471 159.585 187.498 159.639 187.516 159.701L187.739 160.489L187.472 160.565L187.433 160.457L187.433 160.457ZM187.314 160.037L187.227 160.056C187.181 160.065 187.135 160.077 187.09 160.09C186.997 160.116 186.938 160.153 186.911 160.201C186.898 160.222 186.89 160.246 186.886 160.271C186.883 160.296 186.885 160.322 186.892 160.346C186.906 160.396 186.934 160.43 186.977 160.448C187.02 160.467 187.076 160.466 187.144 160.447C187.178 160.437 187.209 160.422 187.237 160.402C187.266 160.381 187.289 160.357 187.308 160.33C187.326 160.303 187.34 160.274 187.347 160.243C187.355 160.213 187.355 160.182 187.347 160.152L187.314 160.037L187.314 160.037ZM187.684 159.237L187.958 159.159L188.008 159.305C188.016 159.284 188.027 159.261 188.042 159.236C188.057 159.21 188.075 159.185 188.098 159.16C188.153 159.1 188.224 159.058 188.302 159.037C188.33 159.029 188.355 159.024 188.378 159.021C188.401 159.018 188.425 159.018 188.45 159.02L188.47 159.314C188.449 159.311 188.427 159.311 188.406 159.313C188.381 159.316 188.357 159.321 188.333 159.329C188.294 159.34 188.258 159.357 188.226 159.38C188.196 159.403 188.17 159.431 188.15 159.464C188.131 159.497 188.118 159.534 188.114 159.572C188.108 159.611 188.112 159.652 188.124 159.696L188.304 160.328L188.016 160.41L187.684 159.237ZM189.946 159.678L189.918 159.731C189.902 159.76 189.877 159.793 189.843 159.829C189.801 159.872 189.755 159.91 189.704 159.942C189.646 159.98 189.572 160.012 189.483 160.037C189.398 160.062 189.309 160.07 189.221 160.06C189.141 160.05 189.063 160.024 188.993 159.983C188.923 159.94 188.862 159.884 188.814 159.816C188.761 159.741 188.722 159.657 188.698 159.568C188.673 159.481 188.664 159.397 188.672 159.315C188.678 159.235 188.699 159.158 188.735 159.088C188.771 159.017 188.821 158.955 188.882 158.905C188.943 158.854 189.017 158.816 189.103 158.791C189.206 158.762 189.3 158.756 189.383 158.775C189.467 158.794 189.539 158.828 189.601 158.879C189.663 158.93 189.715 158.993 189.757 159.067C189.799 159.142 189.832 159.221 189.856 159.304L189.868 159.347L189.016 159.589C189.029 159.632 189.049 159.668 189.078 159.698C189.106 159.728 189.139 159.751 189.176 159.767C189.251 159.8 189.335 159.806 189.413 159.784C189.5 159.76 189.58 159.718 189.649 159.659C189.671 159.64 189.691 159.618 189.708 159.594C189.722 159.572 189.732 159.555 189.739 159.543L189.946 159.678ZM189.513 159.218C189.498 159.168 189.47 159.124 189.432 159.091C189.393 159.057 189.346 159.036 189.296 159.029C189.255 159.023 189.213 159.026 189.173 159.039C189.126 159.052 189.086 159.072 189.054 159.098C189.022 159.124 188.998 159.153 188.98 159.184C188.963 159.215 188.952 159.247 188.947 159.281C188.943 159.313 188.945 159.345 188.954 159.376L189.513 159.218L189.513 159.218ZM190.503 158.696L190.309 158.751L190.24 158.511L190.435 158.456L190.327 158.076L190.614 157.994L190.722 158.375L191.029 158.287L191.097 158.527L190.79 158.615L190.936 159.127C190.955 159.194 190.98 159.242 191.012 159.272C191.044 159.301 191.085 159.309 191.133 159.295C191.179 159.282 191.213 159.265 191.236 159.244C191.259 159.224 191.28 159.2 191.299 159.175L191.472 159.323C191.429 159.388 191.383 159.438 191.334 159.475C191.285 159.511 191.226 159.539 191.158 159.559C191.088 159.578 191.026 159.585 190.972 159.578C190.917 159.571 190.869 159.552 190.828 159.523C190.786 159.49 190.75 159.449 190.724 159.402C190.694 159.347 190.671 159.289 190.654 159.229L190.503 158.696ZM192.624 158.918L192.596 158.971C192.58 158.999 192.556 159.032 192.521 159.069C192.48 159.112 192.433 159.149 192.382 159.181C192.324 159.219 192.25 159.251 192.161 159.277C192.076 159.302 191.987 159.31 191.899 159.299C191.819 159.29 191.741 159.264 191.671 159.222C191.601 159.18 191.54 159.123 191.492 159.056C191.439 158.98 191.4 158.896 191.376 158.808C191.351 158.721 191.343 158.637 191.35 158.554C191.357 158.472 191.379 158.396 191.414 158.327C191.45 158.257 191.498 158.197 191.56 158.145C191.621 158.093 191.695 158.055 191.781 158.031C191.885 158.001 191.978 157.996 192.062 158.015C192.145 158.033 192.217 158.068 192.279 158.119C192.341 158.17 192.393 158.232 192.435 158.307C192.477 158.381 192.51 158.46 192.534 158.544L192.546 158.586L191.695 158.828C191.707 158.871 191.727 158.908 191.756 158.938C191.785 158.967 191.817 158.99 191.854 159.007C191.93 159.039 192.013 159.045 192.092 159.023C192.178 159 192.259 158.957 192.327 158.898C192.349 158.879 192.369 158.857 192.386 158.833C192.4 158.812 192.411 158.795 192.418 158.782L192.624 158.918ZM192.191 158.457C192.177 158.408 192.149 158.364 192.11 158.33C192.072 158.297 192.025 158.276 191.975 158.269C191.933 158.263 191.891 158.266 191.851 158.278C191.804 158.291 191.765 158.311 191.733 158.337C191.701 158.364 191.676 158.392 191.659 158.423C191.641 158.455 191.63 158.487 191.626 158.521C191.621 158.552 191.623 158.585 191.632 158.616L192.191 158.457ZM192.93 158.653C192.976 158.679 193.03 158.697 193.091 158.706C193.152 158.714 193.218 158.709 193.288 158.689C193.349 158.672 193.396 158.649 193.429 158.622C193.462 158.595 193.472 158.562 193.461 158.524C193.457 158.508 193.449 158.493 193.439 158.48C193.424 158.465 193.405 158.455 193.385 158.451C193.353 158.442 193.32 158.437 193.287 158.435C193.232 158.433 193.178 158.433 193.124 158.436C193.079 158.437 193.035 158.435 192.991 158.43C192.943 158.425 192.897 158.414 192.853 158.395C192.809 158.376 192.768 158.349 192.733 158.316C192.698 158.281 192.673 158.236 192.657 158.179C192.64 158.121 192.639 158.065 192.653 158.011C192.668 157.957 192.693 157.909 192.729 157.866C192.765 157.822 192.808 157.784 192.86 157.751C192.91 157.719 192.964 157.695 193.022 157.678C193.122 157.65 193.211 157.636 193.288 157.638C193.364 157.64 193.437 157.654 193.506 157.681L193.417 157.931C193.312 157.893 193.197 157.89 193.091 157.923C193.023 157.943 192.979 157.967 192.958 157.995C192.948 158.007 192.941 158.021 192.938 158.037C192.935 158.052 192.935 158.068 192.939 158.083C192.95 158.119 192.98 158.142 193.031 158.15C193.081 158.158 193.157 158.161 193.258 158.157C193.32 158.154 193.377 158.156 193.429 158.163C193.481 158.17 193.527 158.183 193.569 158.204C193.611 158.224 193.647 158.253 193.676 158.288C193.705 158.324 193.728 158.371 193.744 158.427C193.76 158.484 193.762 158.539 193.749 158.592C193.736 158.646 193.711 158.696 193.676 158.738C193.638 158.785 193.592 158.825 193.541 158.856C193.485 158.891 193.424 158.918 193.36 158.936C193.253 158.966 193.152 158.978 193.058 158.972C192.971 158.968 192.886 158.941 192.812 158.894L192.93 158.653L192.93 158.653ZM193.904 157.73L193.709 157.786L193.641 157.546L193.836 157.49L193.728 157.11L194.015 157.029L194.123 157.409L194.429 157.322L194.498 157.562L194.191 157.649L194.337 158.162C194.355 158.228 194.381 158.276 194.413 158.306C194.445 158.336 194.486 158.344 194.534 158.33C194.58 158.317 194.614 158.3 194.637 158.279C194.66 158.258 194.681 158.235 194.7 158.21L194.873 158.358C194.83 158.422 194.784 158.473 194.735 158.509C194.686 158.546 194.627 158.574 194.559 158.593C194.489 158.613 194.427 158.619 194.372 158.612C194.318 158.605 194.27 158.587 194.229 158.557C194.186 158.525 194.151 158.484 194.125 158.436C194.095 158.381 194.072 158.323 194.055 158.263L193.904 157.73ZM194.578 156.745L194.885 156.658L194.973 156.968L194.666 157.055L194.578 156.745ZM194.729 157.237L195.016 157.155L195.349 158.328L195.062 158.41L194.729 157.237ZM195.31 157.072L195.585 156.994L195.63 157.124C195.641 157.101 195.653 157.079 195.667 157.057C195.682 157.033 195.702 157.009 195.725 156.985C195.782 156.929 195.852 156.889 195.928 156.869C196.071 156.829 196.192 156.842 196.291 156.908C196.391 156.974 196.462 157.082 196.504 157.23L196.706 157.943L196.419 158.024L196.217 157.314C196.196 157.239 196.16 157.187 196.109 157.157C196.082 157.143 196.054 157.134 196.024 157.131C195.995 157.128 195.965 157.131 195.937 157.14C195.899 157.15 195.865 157.169 195.835 157.194C195.805 157.219 195.782 157.25 195.765 157.286C195.749 157.321 195.739 157.359 195.736 157.401C195.733 157.444 195.737 157.487 195.75 157.528L195.93 158.163L195.643 158.245L195.31 157.072L195.31 157.072ZM197.222 158.002C197.276 158.02 197.332 158.029 197.389 158.029C197.446 158.028 197.51 158.017 197.581 157.997C197.656 157.976 197.711 157.935 197.748 157.874C197.785 157.813 197.792 157.741 197.769 157.657L197.732 157.53C197.703 157.574 197.668 157.614 197.628 157.647C197.587 157.681 197.529 157.709 197.453 157.731C197.37 157.754 197.293 157.761 197.22 157.751C197.15 157.741 197.083 157.717 197.023 157.679C196.962 157.639 196.909 157.588 196.868 157.528C196.823 157.461 196.789 157.387 196.768 157.309C196.743 157.222 196.735 157.137 196.743 157.051C196.751 156.968 196.775 156.887 196.815 156.815C196.855 156.742 196.91 156.678 196.981 156.623C197.051 156.568 197.135 156.527 197.234 156.499C197.333 156.47 197.427 156.453 197.515 156.446C197.603 156.439 197.676 156.437 197.733 156.441L198.057 157.581C198.08 157.663 198.087 157.739 198.077 157.81C198.068 157.881 198.045 157.945 198.008 158.003C197.972 158.06 197.924 158.109 197.864 158.15C197.804 158.192 197.735 158.224 197.657 158.246C197.597 158.263 197.543 158.275 197.495 158.282C197.452 158.289 197.408 158.293 197.364 158.294C197.293 158.295 197.222 158.282 197.155 158.256L197.222 158.002ZM197.504 156.725C197.478 156.723 197.453 156.723 197.428 156.726C197.389 156.732 197.35 156.741 197.312 156.752C197.262 156.764 197.215 156.787 197.175 156.819C197.134 156.851 197.101 156.891 197.078 156.937C197.056 156.98 197.044 157.026 197.041 157.074C197.039 157.122 197.044 157.17 197.058 157.219C197.083 157.309 197.127 157.378 197.188 157.428C197.249 157.477 197.329 157.488 197.426 157.46C197.513 157.435 197.574 157.397 197.608 157.346C197.641 157.295 197.647 157.228 197.623 157.145L197.504 156.725ZM198.795 156.988C198.841 157.014 198.895 157.032 198.956 157.041C199.017 157.049 199.083 157.044 199.153 157.024C199.214 157.006 199.261 156.984 199.294 156.957C199.327 156.929 199.337 156.897 199.327 156.858C199.322 156.842 199.314 156.828 199.304 156.815C199.289 156.8 199.271 156.79 199.251 156.785C199.218 156.777 199.185 156.772 199.152 156.77C199.097 156.767 199.043 156.767 198.989 156.77C198.944 156.771 198.9 156.769 198.856 156.765C198.808 156.76 198.762 156.748 198.718 156.73C198.674 156.711 198.633 156.684 198.598 156.65C198.563 156.616 198.538 156.571 198.522 156.514C198.505 156.456 198.504 156.4 198.519 156.346C198.533 156.292 198.558 156.244 198.594 156.2C198.63 156.157 198.674 156.119 198.725 156.086C198.775 156.054 198.829 156.03 198.887 156.013C198.987 155.985 199.076 155.971 199.153 155.973C199.229 155.974 199.302 155.989 199.371 156.016L199.282 156.266C199.177 156.228 199.062 156.225 198.956 156.258C198.888 156.278 198.844 156.301 198.823 156.33C198.813 156.342 198.806 156.356 198.803 156.371C198.8 156.387 198.8 156.403 198.804 156.418C198.815 156.454 198.845 156.477 198.896 156.485C198.946 156.493 199.022 156.495 199.123 156.492C199.185 156.489 199.242 156.49 199.294 156.498C199.346 156.504 199.392 156.518 199.434 156.539C199.476 156.559 199.511 156.587 199.541 156.623C199.57 156.659 199.593 156.705 199.609 156.762C199.625 156.819 199.627 156.873 199.614 156.927C199.601 156.98 199.576 157.03 199.541 157.073C199.503 157.12 199.458 157.159 199.406 157.191C199.35 157.226 199.289 157.253 199.225 157.271C199.118 157.301 199.017 157.313 198.923 157.307C198.836 157.303 198.751 157.276 198.677 157.229L198.795 156.988ZM200.012 157.255C200.032 157.264 200.054 157.272 200.077 157.279C200.103 157.286 200.13 157.285 200.155 157.277C200.174 157.272 200.191 157.262 200.206 157.249C200.22 157.235 200.231 157.218 200.237 157.2C200.253 157.159 200.264 157.1 200.272 157.022L200.282 156.917L199.438 155.9L199.769 155.806L200.323 156.516L200.382 155.632L200.696 155.543L200.552 156.851C200.546 156.916 200.54 156.982 200.535 157.05C200.53 157.118 200.518 157.183 200.5 157.245C200.481 157.307 200.453 157.362 200.413 157.409C200.374 157.456 200.317 157.49 200.243 157.512C200.178 157.53 200.122 157.537 200.074 157.534C200.029 157.531 199.984 157.519 199.942 157.5L200.012 157.255ZM201.167 156.314C201.213 156.341 201.267 156.358 201.328 156.367C201.389 156.376 201.455 156.37 201.524 156.35C201.586 156.333 201.633 156.311 201.666 156.283C201.698 156.256 201.709 156.223 201.698 156.185C201.694 156.169 201.686 156.154 201.675 156.142C201.661 156.127 201.642 156.117 201.622 156.112C201.59 156.103 201.557 156.098 201.523 156.097C201.469 156.094 201.415 156.094 201.36 156.097C201.316 156.098 201.272 156.096 201.227 156.092C201.18 156.087 201.134 156.075 201.09 156.056C201.046 156.038 201.005 156.011 200.97 155.977C200.935 155.943 200.909 155.897 200.893 155.84C200.877 155.782 200.876 155.726 200.89 155.673C200.905 155.619 200.93 155.57 200.966 155.527C201.002 155.483 201.045 155.445 201.097 155.413C201.147 155.381 201.201 155.356 201.259 155.34C201.359 155.311 201.448 155.298 201.524 155.299C201.601 155.301 201.674 155.315 201.743 155.343L201.654 155.592C201.548 155.554 201.434 155.552 201.328 155.585C201.26 155.604 201.216 155.628 201.195 155.657C201.185 155.668 201.178 155.683 201.175 155.698C201.172 155.713 201.172 155.729 201.176 155.744C201.187 155.781 201.217 155.803 201.268 155.811C201.318 155.82 201.394 155.822 201.494 155.819C201.557 155.816 201.613 155.817 201.665 155.824C201.717 155.831 201.764 155.845 201.806 155.865C201.848 155.886 201.883 155.914 201.913 155.95C201.942 155.986 201.965 156.032 201.981 156.088C201.997 156.145 201.999 156.2 201.986 156.253C201.973 156.307 201.948 156.357 201.913 156.4C201.875 156.446 201.829 156.486 201.778 156.518C201.722 156.553 201.661 156.58 201.597 156.597C201.49 156.628 201.389 156.64 201.295 156.633C201.208 156.629 201.123 156.603 201.049 156.556L201.167 156.314ZM202.141 155.392L201.946 155.447L201.878 155.207L202.073 155.152L201.965 154.772L202.252 154.69L202.36 155.07L202.666 154.983L202.734 155.223L202.428 155.31L202.574 155.823C202.592 155.89 202.618 155.938 202.65 155.967C202.682 155.997 202.723 156.005 202.771 155.991C202.816 155.978 202.851 155.961 202.873 155.94C202.897 155.919 202.918 155.896 202.937 155.871L203.11 156.019C203.067 156.083 203.021 156.134 202.972 156.17C202.923 156.207 202.864 156.235 202.796 156.254C202.726 156.274 202.664 156.28 202.609 156.273C202.555 156.266 202.507 156.248 202.466 156.218C202.423 156.186 202.388 156.145 202.362 156.097C202.332 156.043 202.309 155.985 202.292 155.924L202.141 155.392L202.141 155.392ZM204.262 155.614L204.234 155.666C204.218 155.695 204.193 155.728 204.159 155.764C204.117 155.807 204.071 155.845 204.02 155.877C203.962 155.915 203.888 155.947 203.799 155.972C203.714 155.997 203.625 156.005 203.537 155.995C203.457 155.986 203.379 155.96 203.309 155.918C203.239 155.876 203.178 155.819 203.13 155.751C203.077 155.676 203.038 155.592 203.014 155.503C202.989 155.417 202.981 155.332 202.988 155.25C202.994 155.171 203.015 155.093 203.051 155.023C203.087 154.953 203.137 154.89 203.198 154.84C203.259 154.789 203.333 154.751 203.419 154.726C203.523 154.697 203.616 154.692 203.699 154.71C203.783 154.729 203.855 154.764 203.917 154.814C203.979 154.866 204.031 154.928 204.073 155.003C204.115 155.077 204.148 155.156 204.172 155.24L204.184 155.282L203.332 155.524C203.345 155.567 203.365 155.604 203.394 155.633C203.422 155.663 203.455 155.686 203.492 155.702C203.567 155.735 203.651 155.741 203.729 155.719C203.816 155.696 203.896 155.653 203.965 155.594C203.987 155.575 204.007 155.553 204.024 155.529C204.038 155.508 204.049 155.49 204.055 155.478L204.262 155.614ZM203.829 155.153C203.815 155.104 203.787 155.06 203.748 155.026C203.71 154.993 203.662 154.971 203.612 154.965C203.571 154.959 203.529 154.962 203.489 154.974C203.442 154.987 203.402 155.007 203.371 155.033C203.338 155.059 203.314 155.088 203.296 155.119C203.279 155.15 203.268 155.183 203.263 155.216C203.259 155.248 203.261 155.281 203.269 155.312L203.829 155.153ZM204.213 154.544L204.488 154.466L204.533 154.596C204.543 154.576 204.555 154.553 204.568 154.528C204.581 154.504 204.599 154.481 204.621 154.458C204.644 154.435 204.671 154.414 204.703 154.394C204.735 154.374 204.774 154.358 204.819 154.345C204.97 154.302 205.101 154.326 205.211 154.418C205.251 154.339 205.299 154.279 205.352 154.235C205.406 154.192 205.473 154.159 205.554 154.136C205.698 154.095 205.822 154.108 205.923 154.173C206.025 154.239 206.097 154.346 206.139 154.494L206.342 155.207L206.055 155.289L205.853 154.578C205.832 154.503 205.797 154.451 205.749 154.42C205.701 154.39 205.645 154.384 205.582 154.401C205.545 154.411 205.512 154.429 205.483 154.454C205.454 154.479 205.432 154.51 205.416 154.545C205.401 154.581 205.392 154.62 205.391 154.659C205.39 154.702 205.395 154.745 205.407 154.786L205.588 155.421L205.301 155.503L205.099 154.792C205.078 154.717 205.043 154.665 204.995 154.634C204.947 154.604 204.891 154.598 204.828 154.616C204.791 154.625 204.757 154.643 204.729 154.668C204.7 154.693 204.677 154.724 204.662 154.759C204.647 154.795 204.638 154.834 204.637 154.874C204.636 154.916 204.641 154.959 204.653 155L204.833 155.635L204.546 155.717L204.213 154.544Z" fill="#6360F1"/>
</g>
<defs>
<radialGradient id="paint0_radial" cx="0" cy="0" r="1" gradientUnits="userSpaceOnUse" gradientTransform="translate(343.127 102.973) rotate(52.6701) scale(26.9687 31.5462)">
<stop stop-color="#FFDA58"/>
<stop offset="1" stop-color="#FFDA58" stop-opacity="0"/>
</radialGradient>
<clipPath id="clip0">
<rect width="36.6394" height="12.8238" fill="white" transform="translate(168.184 153.283) rotate(-15.8506)"/>
</clipPath>
</defs>
</svg>
